<?xml version="1.0" encoding="utf-8"?>
<svg viewBox="0 0 72.00 72.00" id="emoji" xmlns="http://www.w3.org/2000/svg" fill="#000000"><g id="SVGRepo_bgCarrier" stroke-width="0"><rect x="0" y="0" width="72.00" height="72.00" rx="36" fill="#ffffff" strokewidth="0"></rect></g><g id="SVGRepo_tracerCarrier" stroke-linecap="round" stroke-linejoin="round"></g><g id="SVGRepo_iconCarrier"> <g id="color"> <path fill="#D22F27" d="M48.8559,16c3-2,4-5,3-9c7,2,6,10,3,15"></path> <path fill="#D22F27" d="M23.1441,16c-3-2-4-5-3-9c-7,2-6,10-3,15"></path> <path fill="#EA5A47" d="M36,13c-12.6823,0-23,10.3177-23,23s10.3177,23,23,23c12.6822,0,23-10.3178,23-23 C59,23.3176,48.6822,13,36,13z"></path> </g> <g id="hair"></g> <g id="skin"></g> <g id="skin-shadow"></g> <g id="line"> <circle cx="36" cy="36" r="23" fill="none" stroke="#000000" stroke-miterlimit="10" stroke-width="2"></circle> <path d="M30,32.9252c0,1.6567-1.3448,3-3,3c-1.6553,0-3-1.3433-3-3c0-1.6553,1.3447-3,3-3C28.6552,29.9252,30,31.27,30,32.9252"></path> <path d="M48,32.9252c0,1.6567-1.3447,3-3,3s-3-1.3433-3-3c0-1.6553,1.3447-3,3-3S48,31.27,48,32.9252"></path> <line x1="23" x2="30" y1="25" y2="29" fill="none" stroke="#000000" stroke-linecap="round" stroke-linejoin="round" stroke-miterlimit="10" stroke-width="2"></line> <line x1="49" x2="42" y1="25" y2="29" fill="none" stroke="#000000" stroke-linecap="round" stroke-linejoin="round" stroke-miterlimit="10" stroke-width="2"></line> <path fill="none" stroke="#000000" stroke-linecap="round" stroke-linejoin="round" stroke-miterlimit="10" stroke-width="2" d="M48.8559,16c3-2,4-5,3-9c7,2,6,10,3,15"></path> <path fill="none" stroke="#000000" stroke-linecap="round" stroke-linejoin="round" stroke-miterlimit="10" stroke-width="2" d="M23.1441,16c-3-2-4-5-3-9c-7,2-6,10-3,15"></path> <path fill="none" stroke="#000000" stroke-linecap="round" stroke-linejoin="round" stroke-miterlimit="10" stroke-width="2" d="M29.5,44c1.2841-0.6376,3.9847-1.0308,6.8421-0.9981c2.6235,0.03,4.9897,0.4146,6.1579,0.9981"></path> </g> </g></svg>